<svg width="100" height="29" viewBox="0 0 100 29" fill="none" xmlns="http://www.w3.org/2000/svg">
<path d="M28.8672 13.498L21.0469 21.6924H28.0469L35.0029 28.9824V29H14.0811V28.9922L14.0732 29L9.1416 23.833L23.9355 8.33105L28.8672 13.498ZM20.9219 0.0078125L20.9297 0L25.8613 5.16699L11.0674 20.6689L6.13574 15.502L13.9561 7.30762H6.95117L0 0.0234375V0H20.9219V0.0078125Z" fill="black"/>
<path d="M38.4 12.792H38.158V23H35.342V7.644H39.302L42.8 17.852H43.042V7.644H45.858V23H41.898L38.4 12.792ZM53.7914 23.264C51.7381 23.264 50.2201 22.5673 49.2374 21.174C48.2694 19.7807 47.7854 17.83 47.7854 15.322C47.7854 12.814 48.2694 10.8633 49.2374 9.47C50.2201 8.07667 51.7381 7.38 53.7914 7.38C55.8447 7.38 57.3554 8.07667 58.3234 9.47C59.3061 10.8633 59.7974 12.814 59.7974 15.322C59.7974 17.83 59.3061 19.7807 58.3234 21.174C57.3554 22.5673 55.8447 23.264 53.7914 23.264ZM53.7914 20.602C54.7301 20.602 55.3754 20.2573 55.7274 19.568C56.0941 18.864 56.2774 17.8887 56.2774 16.642V13.98C56.2774 12.748 56.0941 11.7873 55.7274 11.098C55.3754 10.394 54.7301 10.042 53.7914 10.042C52.8527 10.042 52.2001 10.394 51.8334 11.098C51.4814 11.7873 51.3054 12.748 51.3054 13.98V16.664C51.3054 17.896 51.4814 18.864 51.8334 19.568C52.2001 20.2573 52.8527 20.602 53.7914 20.602ZM68.6328 10.35V23H65.3328V10.35H60.9108V7.644H73.0548V10.35H68.6328ZM75.3342 23V7.644H85.1462V10.35H78.6342V13.87H84.9262V16.576H78.6342V20.294H85.1462V23H75.3342ZM93.1236 23.264C91.833 23.264 90.711 23.0513 89.7576 22.626C88.8043 22.2007 88.0343 21.6213 87.4476 20.888L89.3616 18.776C89.919 19.392 90.5276 19.8467 91.1876 20.14C91.8623 20.4333 92.5443 20.58 93.2336 20.58C94.0256 20.58 94.627 20.404 95.0376 20.052C95.4483 19.7 95.6536 19.194 95.6536 18.534C95.6536 17.9913 95.4923 17.5807 95.1696 17.302C94.8616 17.0233 94.3336 16.8253 93.5856 16.708L91.9796 16.444C90.601 16.2093 89.6036 15.7033 88.9876 14.926C88.3716 14.134 88.0636 13.1733 88.0636 12.044C88.0636 10.5627 88.5476 9.41867 89.5156 8.612C90.4836 7.79067 91.8403 7.38 93.5856 7.38C94.7736 7.38 95.8076 7.56333 96.6876 7.93C97.5676 8.29667 98.279 8.79533 98.8216 9.426L96.9516 11.516C96.541 11.0613 96.057 10.7093 95.4996 10.46C94.9423 10.196 94.3116 10.064 93.6076 10.064C92.1263 10.064 91.3856 10.6727 91.3856 11.89C91.3856 12.418 91.547 12.814 91.8696 13.078C92.207 13.342 92.7496 13.54 93.4976 13.672L95.1036 13.958C96.3503 14.178 97.311 14.6473 97.9856 15.366C98.6603 16.0847 98.9976 17.0527 98.9976 18.27C98.9976 18.9887 98.873 19.656 98.6236 20.272C98.3743 20.8733 98.0003 21.4013 97.5016 21.856C97.003 22.296 96.387 22.6407 95.6536 22.89C94.935 23.1393 94.0916 23.264 93.1236 23.264Z" fill="black"/>
</svg>
