<svg width="184" height="17" viewBox="0 0 184 17" fill="none" xmlns="http://www.w3.org/2000/svg">
<path d="M9.482 9.158L9.658 4.868H9.46L6.6 12.766L3.74 4.868H3.542L3.718 9.158V16H0.858V0.644H4.752L6.644 5.814H6.82L8.712 0.644H12.342V16H9.482V9.158ZM14.8414 16V13.558H18.1414V3.086H14.8414V0.644H24.7414V3.086H21.4414V13.558H24.7414V16H14.8414ZM27.7908 0.644H32.7408C34.8088 0.644 36.3415 1.304 37.3388 2.624C38.3361 3.944 38.8348 5.84333 38.8348 8.322C38.8348 10.8007 38.3361 12.7 37.3388 14.02C36.3415 15.34 34.8088 16 32.7408 16H27.7908V0.644ZM32.5208 13.404C33.5035 13.404 34.2221 13.0887 34.6768 12.458C35.1315 11.8273 35.3588 10.9107 35.3588 9.708V6.914C35.3588 5.726 35.1315 4.81667 34.6768 4.186C34.2221 3.55533 33.5035 3.24 32.5208 3.24H31.0468V13.404H32.5208ZM51.6962 16H40.6302V13.118L47.7802 3.35H40.8502V0.644H51.4762V3.526L44.3262 13.294H51.6962V16ZM70.357 5.792H70.115V16H67.299V0.644H71.259L74.757 10.852H74.999V0.644H77.815V16H73.855L70.357 5.792ZM85.7484 16.264C83.6951 16.264 82.1771 15.5673 81.1944 14.174C80.2264 12.7807 79.7424 10.83 79.7424 8.322C79.7424 5.814 80.2264 3.86333 81.1944 2.47C82.1771 1.07667 83.6951 0.379999 85.7484 0.379999C87.8018 0.379999 89.3124 1.07667 90.2804 2.47C91.2631 3.86333 91.7544 5.814 91.7544 8.322C91.7544 10.83 91.2631 12.7807 90.2804 14.174C89.3124 15.5673 87.8018 16.264 85.7484 16.264ZM85.7484 13.602C86.6871 13.602 87.3324 13.2573 87.6844 12.568C88.0511 11.864 88.2344 10.8887 88.2344 9.642V6.98C88.2344 5.748 88.0511 4.78733 87.6844 4.098C87.3324 3.394 86.6871 3.042 85.7484 3.042C84.8098 3.042 84.1571 3.394 83.7904 4.098C83.4384 4.78733 83.2624 5.748 83.2624 6.98V9.664C83.2624 10.896 83.4384 11.864 83.7904 12.568C84.1571 13.2573 84.8098 13.602 85.7484 13.602ZM100.59 3.35V16H97.2898V3.35H92.8678V0.644H105.012V3.35H100.59ZM107.291 16V0.644H117.103V3.35H110.591V6.87H116.883V9.576H110.591V13.294H117.103V16H107.291ZM125.081 16.264C123.79 16.264 122.668 16.0513 121.715 15.626C120.761 15.2007 119.991 14.6213 119.405 13.888L121.319 11.776C121.876 12.392 122.485 12.8467 123.145 13.14C123.819 13.4333 124.501 13.58 125.191 13.58C125.983 13.58 126.584 13.404 126.995 13.052C127.405 12.7 127.611 12.194 127.611 11.534C127.611 10.9913 127.449 10.5807 127.127 10.302C126.819 10.0233 126.291 9.82533 125.543 9.708L123.937 9.444C122.558 9.20933 121.561 8.70333 120.945 7.926C120.329 7.134 120.021 6.17333 120.021 5.044C120.021 3.56267 120.505 2.41867 121.473 1.612C122.441 0.790666 123.797 0.379999 125.543 0.379999C126.731 0.379999 127.765 0.563332 128.645 0.929999C129.525 1.29667 130.236 1.79533 130.779 2.426L128.909 4.516C128.498 4.06133 128.014 3.70933 127.457 3.46C126.899 3.196 126.269 3.064 125.565 3.064C124.083 3.064 123.343 3.67267 123.343 4.89C123.343 5.418 123.504 5.814 123.827 6.078C124.164 6.342 124.707 6.54 125.455 6.672L127.061 6.958C128.307 7.178 129.268 7.64733 129.943 8.366C130.617 9.08467 130.955 10.0527 130.955 11.27C130.955 11.9887 130.83 12.656 130.581 13.272C130.331 13.8733 129.957 14.4013 129.459 14.856C128.96 15.296 128.344 15.6407 127.611 15.89C126.892 16.1393 126.049 16.264 125.081 16.264ZM154.675 16L153.707 12.304H149.505L148.559 16H145.215L149.373 0.644H154.037L158.195 16H154.675ZM151.705 3.834H151.529L150.033 9.642H153.201L151.705 3.834ZM159.969 16V0.644H165.909C166.657 0.644 167.324 0.761333 167.911 0.995999C168.498 1.216 168.989 1.53867 169.385 1.964C169.796 2.38933 170.104 2.90267 170.309 3.504C170.514 4.10533 170.617 4.78 170.617 5.528C170.617 6.276 170.514 6.95067 170.309 7.552C170.104 8.15333 169.796 8.66667 169.385 9.092C168.989 9.51733 168.498 9.84733 167.911 10.082C167.324 10.302 166.657 10.412 165.909 10.412H163.291V16H159.969ZM163.291 7.75H165.073C165.85 7.75 166.386 7.60333 166.679 7.31C166.987 7.01667 167.141 6.53267 167.141 5.858V5.198C167.141 4.52333 166.987 4.03933 166.679 3.746C166.386 3.45267 165.85 3.306 165.073 3.306H163.291V7.75ZM173.16 16V0.644H179.1C179.848 0.644 180.516 0.761333 181.102 0.995999C181.689 1.216 182.18 1.53867 182.576 1.964C182.987 2.38933 183.295 2.90267 183.5 3.504C183.706 4.10533 183.808 4.78 183.808 5.528C183.808 6.276 183.706 6.95067 183.5 7.552C183.295 8.15333 182.987 8.66667 182.576 9.092C182.18 9.51733 181.689 9.84733 181.102 10.082C180.516 10.302 179.848 10.412 179.1 10.412H176.482V16H173.16ZM176.482 7.75H178.264C179.042 7.75 179.577 7.60333 179.87 7.31C180.178 7.01667 180.332 6.53267 180.332 5.858V5.198C180.332 4.52333 180.178 4.03933 179.87 3.746C179.577 3.45267 179.042 3.306 178.264 3.306H176.482V7.75Z" fill="white"/>
</svg>
